<?xml version="1.0" encoding="utf-8"?>
<!-- Generator: Adobe Illustrator 16.0.0, SVG Export Plug-In . SVG Version: 6.00 Build 0)  -->
<!DOCTYPE svg PUBLIC "-//W3C//DTD SVG 1.1//EN" "http://www.w3.org/Graphics/SVG/1.1/DTD/svg11.dtd">
<svg version="1.1" id="레이어_1" xmlns="http://www.w3.org/2000/svg" xmlns:xlink="http://www.w3.org/1999/xlink" x="0px"
	 y="0px" width="708.661px" height="708.662px" viewBox="141.732 141.732 708.661 708.662"
	 enable-background="new 141.732 141.732 708.661 708.662" xml:space="preserve">
<g>
	<g>
		
			<linearGradient id="SVGID_1_" gradientUnits="userSpaceOnUse" x1="98.8394" y1="572.1858" x2="495.8638" y2="572.1858" gradientTransform="matrix(1 0 0 1 198.5049 -75.8008)">
			<stop  offset="0" style="stop-color:#666666"/>
			<stop  offset="0.0323" style="stop-color:#27272A"/>
			<stop  offset="0.086" style="stop-color:#666666"/>
			<stop  offset="0.0914" style="stop-color:#484849"/>
			<stop  offset="0.1075" style="stop-color:#3B3D3E"/>
			<stop  offset="0.3871" style="stop-color:#3B3D3E"/>
			<stop  offset="0.405" style="stop-color:#3C3E3F"/>
			<stop  offset="0.4158" style="stop-color:#404143"/>
			<stop  offset="0.4246" style="stop-color:#494A4A"/>
			<stop  offset="0.4325" style="stop-color:#545455"/>
			<stop  offset="0.4396" style="stop-color:#636363"/>
			<stop  offset="0.4409" style="stop-color:#666666"/>
			<stop  offset="0.4785" style="stop-color:#27272A"/>
			<stop  offset="0.5" style="stop-color:#636565"/>
			<stop  offset="0.5108" style="stop-color:#27272A"/>
			<stop  offset="0.5699" style="stop-color:#3B3D3E"/>
			<stop  offset="0.7419" style="stop-color:#3B3D3E"/>
			<stop  offset="0.8172" style="stop-color:#5A5B5B"/>
			<stop  offset="0.8333" style="stop-color:#686A69"/>
			<stop  offset="0.8871" style="stop-color:#686A6A"/>
			<stop  offset="0.9516" style="stop-color:#27272A"/>
			<stop  offset="1" style="stop-color:#666666"/>
		</linearGradient>
		<rect x="297.344" y="192.385" fill="url(#SVGID_1_)" width="397.024" height="608"/>
		
			<linearGradient id="SVGID_2_" gradientUnits="userSpaceOnUse" x1="358.6382" y1="275.408" x2="358.6382" y2="299.0759" gradientTransform="matrix(1 0 0 1 198.5049 -75.8008)">
			<stop  offset="0" style="stop-color:#666666"/>
			<stop  offset="0.0645" style="stop-color:#27272A"/>
			<stop  offset="0.1559" style="stop-color:#484849"/>
			<stop  offset="0.2097" style="stop-color:#5A5B5B"/>
			<stop  offset="0.2419" style="stop-color:#5A5B5B"/>
			<stop  offset="0.248" style="stop-color:#5A5B5B"/>
			<stop  offset="0.2849" style="stop-color:#5A5B5B"/>
			<stop  offset="0.3871" style="stop-color:#666666"/>
			<stop  offset="0.9247" style="stop-color:#686A69"/>
			<stop  offset="0.9516" style="stop-color:#27272A"/>
			<stop  offset="0.9677" style="stop-color:#666666"/>
			<stop  offset="1" style="stop-color:#676868"/>
			<stop  offset="1" style="stop-color:#686A6A"/>
			<stop  offset="1" style="stop-color:#666666"/>
		</linearGradient>
		<rect x="548.716" y="196.982" fill="url(#SVGID_2_)" width="16.854" height="23.668"/>
		
			<linearGradient id="SVGID_3_" gradientUnits="userSpaceOnUse" x1="98.1909" y1="597.3059" x2="497.4829" y2="597.3059" gradientTransform="matrix(1 0 0 1 198.5049 -75.8008)">
			<stop  offset="0" style="stop-color:#666666"/>
			<stop  offset="0.0323" style="stop-color:#27272A"/>
			<stop  offset="0.086" style="stop-color:#666666"/>
			<stop  offset="0.0914" style="stop-color:#484849"/>
			<stop  offset="0.1075" style="stop-color:#5A5B5B"/>
			<stop  offset="0.1559" style="stop-color:#515151"/>
			<stop  offset="0.4731" style="stop-color:#3B3E41"/>
			<stop  offset="0.5906" style="stop-color:#3D3F42"/>
			<stop  offset="0.6526" style="stop-color:#454548"/>
			<stop  offset="0.7015" style="stop-color:#515051"/>
			<stop  offset="0.7419" style="stop-color:#616060"/>
			<stop  offset="0.8333" style="stop-color:#686A69"/>
			<stop  offset="0.8871" style="stop-color:#686A6A"/>
			<stop  offset="0.9516" style="stop-color:#27272A"/>
			<stop  offset="1" style="stop-color:#666666"/>
		</linearGradient>
		<rect x="296.696" y="517.549" fill="url(#SVGID_3_)" width="399.292" height="7.912"/>
		<rect x="294.104" y="533.383" fill="#D28BA3" width="198.997" height="264.167"/>
		<rect x="499.026" y="533.383" fill="#DFA654" width="198.996" height="264.167"/>
		
			<linearGradient id="SVGID_4_" gradientUnits="userSpaceOnUse" x1="116.5889" y1="828.6282" x2="156.8795" y2="679.8621" gradientTransform="matrix(1 0 0 1 198.5049 -75.8008)">
			<stop  offset="0" style="stop-color:#D28BA3"/>
			<stop  offset="1" style="stop-color:#D99DB3"/>
		</linearGradient>
		<polygon fill="url(#SVGID_4_)" points="301.018,537.549 445.78,537.549 301.018,778.216 		"/>
		
			<linearGradient id="SVGID_5_" gradientUnits="userSpaceOnUse" x1="95.5991" y1="603.9338" x2="294.5962" y2="603.9338" gradientTransform="matrix(1 0 0 1 198.5049 -75.8008)">
			<stop  offset="0" style="stop-color:#666666"/>
			<stop  offset="0.0323" style="stop-color:#27272A"/>
			<stop  offset="0.086" style="stop-color:#666666"/>
			<stop  offset="0.0914" style="stop-color:#484849"/>
			<stop  offset="0.1075" style="stop-color:#5A5B5B"/>
			<stop  offset="0.1559" style="stop-color:#5A5B5B"/>
			<stop  offset="0.2043" style="stop-color:#2E3133"/>
			<stop  offset="0.6989" style="stop-color:#2E3133"/>
			<stop  offset="1" style="stop-color:#27272A"/>
		</linearGradient>
		<rect x="294.104" y="522.883" fill="url(#SVGID_5_)" width="198.997" height="10.5"/>
		
			<linearGradient id="SVGID_6_" gradientUnits="userSpaceOnUse" x1="499.5171" y1="603.9338" x2="300.521" y2="603.934" gradientTransform="matrix(1 0 0 1 198.5049 -75.8008)">
			<stop  offset="0" style="stop-color:#666666"/>
			<stop  offset="0.0323" style="stop-color:#27272A"/>
			<stop  offset="0.086" style="stop-color:#666666"/>
			<stop  offset="0.0914" style="stop-color:#484849"/>
			<stop  offset="0.1075" style="stop-color:#5A5B5B"/>
			<stop  offset="0.1559" style="stop-color:#5A5B5B"/>
			<stop  offset="0.2043" style="stop-color:#2E3133"/>
			<stop  offset="0.6989" style="stop-color:#2E3133"/>
			<stop  offset="1" style="stop-color:#27272A"/>
		</linearGradient>
		<rect x="499.026" y="522.883" fill="url(#SVGID_6_)" width="198.996" height="10.5"/>
		<g>
			<rect x="499.026" y="184.885" fill="#B6B5B7" width="198.996" height="334.499"/>
			<rect x="499.037" y="184.908" fill="#B5B3B6" width="198.943" height="334.475"/>
			<rect x="499.048" y="184.931" fill="#B4B2B5" width="198.894" height="334.452"/>
			<rect x="499.063" y="184.955" fill="#B2B0B4" width="198.838" height="334.428"/>
			<rect x="499.074" y="184.978" fill="#B1AFB1" width="198.785" height="334.405"/>
			<rect x="499.089" y="185.002" fill="#B1AEB0" width="198.732" height="334.381"/>
			<rect x="499.104" y="185.023" fill="#AFADAF" width="198.674" height="334.36"/>
			<rect x="499.115" y="185.047" fill="#AEACAD" width="198.627" height="334.336"/>
			<rect x="499.128" y="185.071" fill="#ADABAD" width="198.572" height="334.313"/>
			<rect x="499.14" y="185.094" fill="#ACAAAC" width="198.521" height="334.29"/>
			<rect x="499.156" y="185.117" fill="#AAA8AB" width="198.463" height="334.266"/>
			<rect x="499.169" y="185.14" fill="#AAA7A8" width="198.408" height="334.243"/>
			<rect x="499.181" y="185.164" fill="#A9A6A7" width="198.357" height="334.219"/>
			<rect x="499.194" y="185.185" fill="#A7A5A6" width="198.307" height="334.198"/>
			<rect x="499.207" y="185.209" fill="#A6A4A5" width="198.25" height="334.174"/>
			<rect x="499.218" y="185.232" fill="#A4A2A3" width="198.199" height="334.151"/>
			<rect x="499.235" y="185.256" fill="#A3A1A3" width="198.145" height="334.127"/>
			<rect x="499.248" y="185.28" fill="#A3A0A1" width="198.09" height="334.104"/>
			<rect x="499.259" y="185.303" fill="#A29FA0" width="198.039" height="334.081"/>
			<rect x="499.272" y="185.326" fill="#A09C9E" width="197.985" height="334.057"/>
			<rect x="499.285" y="185.349" fill="#9F9B9D" width="197.932" height="334.034"/>
			<rect x="499.3" y="185.373" fill="#9D9B9C" width="197.88" height="334.01"/>
			<rect x="499.313" y="185.394" fill="#9C999B" width="197.824" height="333.989"/>
			<rect x="499.326" y="185.42" fill="#9C989A" width="197.771" height="333.963"/>
			<rect x="499.337" y="185.441" fill="#9B9798" width="197.718" height="333.942"/>
			<rect x="499.351" y="185.465" fill="#9A9697" width="197.667" height="333.918"/>
			<rect x="499.364" y="185.489" fill="#999596" width="197.613" height="333.895"/>
			<rect x="499.378" y="185.512" fill="#989495" width="197.558" height="333.872"/>
			<rect x="499.392" y="185.535" fill="#969294" width="197.507" height="333.848"/>
			<rect x="499.405" y="185.558" fill="#959092" width="197.451" height="333.825"/>
			<rect x="499.416" y="185.582" fill="#939091" width="197.398" height="333.801"/>
			<rect x="499.429" y="185.603" fill="#938F90" width="197.349" height="333.78"/>
			<rect x="499.444" y="185.627" fill="#928E8F" width="197.293" height="333.756"/>
			<rect x="499.457" y="185.651" fill="#918D8D" width="197.238" height="333.732"/>
			<rect x="499.47" y="185.674" fill="#8F8A8C" width="197.187" height="333.709"/>
			<rect x="499.483" y="185.698" fill="#8E8A8B" width="197.133" height="333.686"/>
			<rect x="499.494" y="185.721" fill="#8D898A" width="197.082" height="333.663"/>
			<rect x="499.509" y="185.744" fill="#8D8888" width="197.025" height="333.639"/>
			<rect x="499.524" y="185.767" fill="#8C8787" width="196.969" height="333.616"/>
			<rect x="499.535" y="185.791" fill="#8B8686" width="196.918" height="333.592"/>
			<rect x="499.548" y="185.812" fill="#898585" width="196.865" height="333.571"/>
			<rect x="499.561" y="185.836" fill="#878283" width="196.813" height="333.547"/>
			<rect x="499.576" y="185.86" fill="#868182" width="196.756" height="333.523"/>
			<rect x="499.587" y="185.883" fill="#868181" width="196.701" height="333.5"/>
			<rect x="499.601" y="185.906" fill="#848080" width="196.65" height="333.477"/>
			<rect x="499.615" y="185.93" fill="#837F80" width="196.596" height="333.454"/>
			<rect x="499.626" y="185.953" fill="#827E7F" width="196.545" height="333.43"/>
			<rect x="499.638" y="185.976" fill="#817D7E" width="196.492" height="333.407"/>
			<rect x="499.655" y="186" fill="#807B7D" width="196.438" height="333.383"/>
			<rect x="499.666" y="186.021" fill="#807A7C" width="196.387" height="333.362"/>
			<rect x="499.679" y="186.045" fill="#7F797A" width="196.333" height="333.338"/>
			<rect x="499.694" y="186.069" fill="#7E7879" width="196.272" height="333.314"/>
			<rect x="499.705" y="186.092" fill="#7D7878" width="196.226" height="333.292"/>
			<rect x="499.72" y="186.115" fill="#7C7776" width="196.169" height="333.268"/>
			<rect x="499.733" y="186.138" fill="#7A7676" width="196.117" height="333.245"/>
			<rect x="499.746" y="186.162" fill="#797575" width="196.063" height="333.221"/>
			<rect x="499.757" y="186.185" fill="#787474" width="196.013" height="333.198"/>
			<rect x="499.772" y="186.209" fill="#787373" width="195.961" height="333.174"/>
			<rect x="499.783" y="186.23" fill="#777272" width="195.908" height="333.153"/>
			<rect x="499.798" y="186.254" fill="#767171" width="195.849" height="333.129"/>
			<rect x="499.813" y="186.278" fill="#757070" width="195.795" height="333.105"/>
			<rect x="499.824" y="186.301" fill="#736F6E" width="195.744" height="333.083"/>
			<rect x="499.835" y="186.324" fill="#726C6D" width="195.691" height="333.059"/>
			<rect x="499.849" y="186.347" fill="#716C6C" width="195.64" height="333.036"/>
			<rect x="499.865" y="186.371" fill="#716B6B" width="195.582" height="333.012"/>
			<rect x="499.876" y="186.394" fill="#706A6A" width="195.531" height="332.989"/>
			<rect x="499.89" y="186.418" fill="#6F6969" width="195.479" height="332.965"/>
			<rect x="499.903" y="186.439" fill="#6D6868" width="195.422" height="332.944"/>
			<rect x="499.916" y="186.463" fill="#6C6767" width="195.371" height="332.92"/>
			<rect x="499.927" y="186.487" fill="#6B6666" width="195.318" height="332.896"/>
			<rect x="499.944" y="186.51" fill="#6A6565" width="195.264" height="332.874"/>
			<rect x="499.957" y="186.533" fill="#696364" width="195.209" height="332.85"/>
			<rect x="499.968" y="186.556" fill="#686363" width="195.156" height="332.827"/>
			<rect x="499.981" y="186.58" fill="#676262" width="195.106" height="332.803"/>
			<rect x="499.994" y="186.603" fill="#666161" width="195.053" height="332.78"/>
			<rect x="500.009" y="186.625" fill="#666160" width="194.994" height="332.758"/>
			<rect x="500.022" y="186.648" fill="#64605F" width="194.942" height="332.735"/>
			<rect x="500.035" y="186.672" fill="#635F5E" width="194.889" height="332.711"/>
			<rect x="500.046" y="186.696" fill="#625E5E" width="194.838" height="332.688"/>
			<rect x="500.063" y="186.719" fill="#625D5D" width="194.785" height="332.665"/>
			<rect x="500.072" y="186.742" fill="#605C5C" width="194.732" height="332.641"/>
			<rect x="500.085" y="186.765" fill="#5F5B5B" width="194.679" height="332.618"/>
			<rect x="500.099" y="186.789" fill="#5F5A5A" width="194.628" height="332.594"/>
			<rect x="500.114" y="186.81" fill="#5E5958" width="194.57" height="332.573"/>
			<rect x="500.125" y="186.834" fill="#5D5858" width="194.521" height="332.549"/>
			<rect x="500.138" y="186.857" fill="#5D5756" width="194.466" height="332.526"/>
			<rect x="500.151" y="186.881" fill="#5B5656" width="194.412" height="332.502"/>
			<rect x="500.166" y="186.905" fill="#5A5555" width="194.359" height="332.479"/>
			<rect x="500.179" y="186.928" fill="#595353" width="194.304" height="332.456"/>
			<rect x="500.192" y="186.951" fill="#585253" width="194.25" height="332.432"/>
			<rect x="500.203" y="186.974" fill="#585352" width="194.197" height="332.409"/>
			<rect x="500.216" y="186.998" fill="#575252" width="194.146" height="332.385"/>
			<rect x="500.229" y="187.019" fill="#555051" width="194.094" height="332.364"/>
			<rect x="500.244" y="187.043" fill="#555050" width="194.039" height="332.34"/>
			<rect x="500.257" y="187.066" fill="#534F4E" width="193.984" height="332.317"/>
			<rect x="500.27" y="187.09" fill="#524D4E" width="193.934" height="332.293"/>
			<rect x="500.283" y="187.114" fill="#514D4D" width="193.877" height="332.27"/>
			<rect x="500.296" y="187.137" fill="#504C4C" width="193.822" height="332.247"/>
			<rect x="500.311" y="187.16" fill="#504A4B" width="193.77" height="332.223"/>
			<rect x="500.322" y="187.183" fill="#4F4A4A" width="193.719" height="332.2"/>
			<rect x="500.335" y="187.207" fill="#4E4A4A" width="193.664" height="332.176"/>
			<rect x="500.349" y="187.228" fill="#4E4949" width="193.611" height="332.155"/>
			<rect x="500.362" y="187.252" fill="#4C4848" width="193.559" height="332.131"/>
			<rect x="500.376" y="187.276" fill="#4C4647" width="193.506" height="332.107"/>
			<rect x="500.388" y="187.299" fill="#4B4647" width="193.449" height="332.084"/>
			<rect x="500.401" y="187.323" fill="#4A4645" width="193.397" height="332.061"/>
			<rect x="500.414" y="187.346" fill="#494445" width="193.344" height="332.038"/>
			<rect x="500.427" y="187.369" fill="#484344" width="193.294" height="332.014"/>
			<rect x="500.44" y="187.392" fill="#474343" width="193.24" height="331.991"/>
			<rect x="500.455" y="187.416" fill="#474143" width="193.185" height="331.967"/>
			<rect x="500.466" y="187.437" fill="#454141" width="193.134" height="331.946"/>
			<rect x="500.481" y="187.461" fill="#444041" width="193.08" height="331.922"/>
			<rect x="500.494" y="187.485" fill="#444040" width="193.025" height="331.898"/>
			<rect x="500.505" y="187.508" fill="#423F3F" width="192.972" height="331.875"/>
			<rect x="500.522" y="187.531" fill="#413D3F" width="192.914" height="331.852"/>
			<rect x="500.533" y="187.555" fill="#413C3E" width="192.865" height="331.829"/>
			<rect x="500.548" y="187.578" fill="#3F3C3D" width="192.812" height="331.805"/>
			<rect x="500.558" y="187.599" fill="#3E3C3B" width="192.761" height="331.784"/>
			<rect x="500.572" y="187.623" fill="#3F3B3C" width="192.705" height="331.76"/>
			<rect x="500.583" y="187.646" fill="#3D393B" width="192.654" height="331.737"/>
			<rect x="500.599" y="187.67" fill="#3C393A" width="192.599" height="331.713"/>
			<rect x="500.614" y="187.694" fill="#3B3939" width="192.541" height="331.689"/>
			<rect x="500.623" y="187.717" fill="#3A3839" width="192.494" height="331.667"/>
			<rect x="500.636" y="187.74" fill="#393738" width="192.438" height="331.643"/>
			<rect x="500.651" y="187.763" fill="#383637" width="192.387" height="331.62"/>
			<rect x="500.664" y="187.787" fill="#383535" width="192.33" height="331.596"/>
			<rect x="500.677" y="187.81" fill="#373436" width="192.277" height="331.573"/>
			<rect x="500.69" y="187.832" fill="#363435" width="192.227" height="331.551"/>
			<rect x="500.703" y="187.855" fill="#353334" width="192.172" height="331.528"/>
			<rect x="500.714" y="187.879" fill="#343233" width="192.119" height="331.504"/>
			<rect x="500.731" y="187.903" fill="#333233" width="192.063" height="331.48"/>
			<rect x="500.744" y="187.926" fill="#323132" width="192.008" height="331.458"/>
			<rect x="500.755" y="187.949" fill="#323031" width="191.957" height="331.434"/>
			<rect x="500.767" y="187.972" fill="#302F30" width="191.904" height="331.411"/>
			<rect x="500.781" y="187.996" fill="#302F30" width="191.854" height="331.387"/>
			<rect x="500.794" y="188.017" fill="#302E2F" width="191.799" height="331.366"/>
			<rect x="500.808" y="188.041" fill="#2E2C2D" width="191.742" height="331.342"/>
			<rect x="500.822" y="188.064" fill="#2D2C2D" width="191.689" height="331.319"/>
			<rect x="500.835" y="188.088" fill="#2C2C2D" width="191.636" height="331.295"/>
			<rect x="500.845" y="188.112" fill="#2B2A2C" width="191.589" height="331.271"/>
			<rect x="500.86" y="188.135" fill="#2A2A2B" width="191.533" height="331.249"/>
			<rect x="500.875" y="188.158" fill="#2A2A2B" width="191.476" height="331.225"/>
			<rect x="500.886" y="188.18" fill="#292929" width="191.427" height="331.204"/>
			<rect x="500.901" y="188.205" fill="#282829" width="191.371" height="331.178"/>
			<rect x="500.912" y="188.226" fill="#272629" width="191.318" height="331.157"/>
			<rect x="500.925" y="188.25" fill="#252627" width="191.265" height="331.133"/>
			<rect x="500.94" y="188.273" fill="#252526" width="191.211" height="331.11"/>
			<rect x="500.953" y="188.297" fill="#242526" width="191.156" height="331.086"/>
			<rect x="500.966" y="188.321" fill="#242425" width="191.104" height="331.063"/>
			<rect x="500.981" y="188.344" fill="#232424" width="191.051" height="331.04"/>
			<rect x="500.99" y="188.367" fill="#222225" width="191" height="331.016"/>
			<rect x="501.003" y="188.39" fill="#212224" width="190.947" height="330.993"/>
			<rect x="501.02" y="188.412" fill="#212122" width="190.889" height="330.971"/>
			<rect x="501.031" y="188.435" fill="#202022" width="190.838" height="330.948"/>
			<rect x="501.044" y="188.459" fill="#1F1F21" width="190.783" height="330.924"/>
			<rect x="501.058" y="188.482" fill="#1E1E20" width="190.73" height="330.901"/>
			<rect x="501.071" y="188.506" fill="#1D1E20" width="190.678" height="330.877"/>
			<rect x="501.082" y="188.528" fill="#1D1D1F" width="190.627" height="330.855"/>
			<rect x="501.097" y="188.553" fill="#1C1D1E" width="190.572" height="330.831"/>
		</g>
		<rect x="499.026" y="184.885" fill="#252527" width="198.996" height="3.668"/>
		<polygon fill="#2F3133" points="501.095,433.219 622.958,188.553 622.958,184.885 501.095,184.885 		"/>
		<rect x="539.557" y="256.219" fill="#0E0C0A" width="117.973" height="163.666"/>
		
			<linearGradient id="SVGID_7_" gradientUnits="userSpaceOnUse" x1="448.0093" y1="431.2542" x2="311.2675" y2="364.0621" gradientTransform="matrix(1 0 0 1 198.5049 -75.8008)">
			<stop  offset="0.0056" style="stop-color:#EAEBEC"/>
			<stop  offset="0.2528" style="stop-color:#FCFBE9"/>
			<stop  offset="0.4008" style="stop-color:#F2F0DE"/>
			<stop  offset="0.5955" style="stop-color:#DDD8CD"/>
			<stop  offset="0.7865" style="stop-color:#F3F3F4"/>
			<stop  offset="1" style="stop-color:#DEDBC4"/>
		</linearGradient>
		<rect x="543.662" y="275.635" fill="url(#SVGID_7_)" width="108.25" height="111.748"/>
		<path fill="#1C1D1E" d="M310.958,800.384c0,0.896,0.004,1.789,0.002,2.686c0,1.843,0.753,3,3.105,3.593
			c2.826,0.709,5.871,0.69,8.782,0.35c1.162-0.137,5.319-0.324,5.293-1.629c1.088,0.043,2.342-0.269,3.396-0.121
			c4.041,0.559,8.139,0.656,12.234,0.637c2.712-0.014,7.19,0.545,7.832-2.256c0.055-0.238,0.528-3.256,0.514-3.256h-41.16
			L310.958,800.384L310.958,800.384z"/>
		<path fill="#19181A" d="M685.617,800.384c0,0.896-0.002,1.789-0.002,2.686c0,1.843-0.75,3-3.107,3.593
			c-2.827,0.709-5.868,0.69-8.776,0.35c-1.162-0.137-5.324-0.324-5.301-1.629c-1.087,0.043-2.337-0.269-3.396-0.121
			c-4.039,0.559-8.135,0.656-12.234,0.637c-2.713-0.014-7.19,0.545-7.832-2.256c-0.055-0.238-0.526-3.256-0.512-3.256h41.16V800.384
			z"/>
		<path fill="#17161A" d="M475.921,800.384v4.5c0,0,0.486,1.375,5.834,1.375c1.594,0,2.939-0.098,4.438-0.557
			c0.588-0.183,0.551-0.32,1.432-0.447c3.279-0.467,7.246,0.004,10.588,0.004c3.701,0,7.402,0,11.105,0c0.117,0,2.254,0,2.254,0
			v-4.875H475.921z"/>
		<rect x="294.104" y="184.885" fill="#79B399" width="198.997" height="334.499"/>
		<polygon fill="#94C2AF" points="299.938,190.135 368.323,190.135 299.938,436.217 		"/>
		
			<linearGradient id="SVGID_8_" gradientUnits="userSpaceOnUse" x1="251.1055" y1="595.677" x2="212.6072" y2="476.1297" gradientTransform="matrix(1 0 0 1 198.5049 -75.8008)">
			<stop  offset="0" style="stop-color:#79B399"/>
			<stop  offset="1" style="stop-color:#8EBEAA"/>
		</linearGradient>
		<polygon fill="url(#SVGID_8_)" points="393.599,190.135 486.615,190.135 486.615,448.883 453.558,511.828 303.827,511.828 		"/>
	</g>
	<g>
		<path fill="#6FC149" d="M645.308,438.369c0,0,4.124,5.546,10.059,1.196c0,0-2.424-6.272-8.076-5.598
			C647.29,433.969,642.693,434.608,645.308,438.369z"/>
		<path fill="#61C33C" d="M644.307,433.337c-1.587-1.66-4.041-2.322-6.202-1.457c-0.518,0.207-0.996,0.491-1.44,0.825
			c-0.398,0.302-1.106,0.724-1.163,1.284c-0.049,0.49,0.439,0.9,0.745,1.218c1.05,1.09,2.079,2.256,3.615,2.616
			c0.979,0.229,2.266,0.215,3.234-0.079C643.107,437.741,647.302,436.469,644.307,433.337z"/>
		<path fill="#6CC850" d="M646.361,438.47c0,0,0.255,6.023-6.713,5.95c0,0-1.965-5.645,2.759-8.243
			C642.406,436.177,646.3,434.131,646.361,438.47z"/>
		<path fill="#87D95A" d="M647.175,435.086c1.57-1.527,2.334-3.986,1.459-6.05c-0.412-0.976-1.187-2.228-2.012-2.905
			c-1.967,1.111-3.738,2.865-4.079,5.195c-0.123,0.843-0.04,1.771,0.214,2.586C642.757,433.912,644.066,438.112,647.175,435.086z"/>
		<g opacity="0.3">
			
				<path fill="none" stroke="#C4FFA9" stroke-width="0.15" stroke-linecap="round" stroke-linejoin="round" stroke-miterlimit="10" d="
				M643.307,435.536c0,0-3.97-1.567-6.781-1.474"/>
			
				<path fill="none" stroke="#C4FFA9" stroke-width="0.15" stroke-linecap="round" stroke-linejoin="round" stroke-miterlimit="10" d="
				M638.119,433.033c-0.021,0.771,0.374,1.175,0.374,1.175"/>
			
				<path fill="none" stroke="#C4FFA9" stroke-width="0.15" stroke-linecap="round" stroke-linejoin="round" stroke-miterlimit="10" d="
				M638.307,435.956c0,0,0.182-1.33,1.122-1.575"/>
			
				<path fill="none" stroke="#C4FFA9" stroke-width="0.15" stroke-linecap="round" stroke-linejoin="round" stroke-miterlimit="10" d="
				M640.244,432.804c0,0-0.5,1.283,0,1.768"/>
			
				<path fill="none" stroke="#C4FFA9" stroke-width="0.15" stroke-linecap="round" stroke-linejoin="round" stroke-miterlimit="10" d="
				M640.022,436.618c0,0,0.136-1.423,1.533-1.682"/>
		</g>
		<g opacity="0.3">
			
				<path fill="none" stroke="#C4FFA9" stroke-width="0.15" stroke-linecap="round" stroke-linejoin="round" stroke-miterlimit="10" d="
				M646,436.242c0,0,4.5,1.109,6.933,2.964"/>
			
				<path fill="none" stroke="#C4FFA9" stroke-width="0.15" stroke-linecap="round" stroke-linejoin="round" stroke-miterlimit="10" d="
				M652.168,437.29c-0.467,0.695-1.07,0.805-1.07,0.805"/>
			
				<path fill="none" stroke="#C4FFA9" stroke-width="0.15" stroke-linecap="round" stroke-linejoin="round" stroke-miterlimit="10" d="
				M650.162,439.76c0,0,0.677-1.292-0.002-2.1"/>
			
				<path fill="none" stroke="#C4FFA9" stroke-width="0.15" stroke-linecap="round" stroke-linejoin="round" stroke-miterlimit="10" d="
				M650.432,435.75c0,0-0.365,1.451-1.112,1.563"/>
			
				<path fill="none" stroke="#C4FFA9" stroke-width="0.15" stroke-linecap="round" stroke-linejoin="round" stroke-miterlimit="10" d="
				M648.229,439.267c0,0,0.774-1.346-0.3-2.454"/>
		</g>
		<g opacity="0.3">
			
				<path fill="none" stroke="#C4FFA9" stroke-width="0.15" stroke-linecap="round" stroke-linejoin="round" stroke-miterlimit="10" d="
				M644.813,435.668c0,0,0.136-4.633,1.435-7.401"/>
			
				<path fill="none" stroke="#C4FFA9" stroke-width="0.15" stroke-linecap="round" stroke-linejoin="round" stroke-miterlimit="10" d="
				M644.535,429.417c0.778,0.31,1.013,0.877,1.013,0.877"/>
			
				<path fill="none" stroke="#C4FFA9" stroke-width="0.15" stroke-linecap="round" stroke-linejoin="round" stroke-miterlimit="10" d="
				M647.373,430.857c0,0-1.404-0.389-2.053,0.445"/>
			
				<path fill="none" stroke="#C4FFA9" stroke-width="0.15" stroke-linecap="round" stroke-linejoin="round" stroke-miterlimit="10" d="
				M643.397,431.44c0,0,1.495,0.052,1.764,0.758"/>
			
				<path fill="none" stroke="#C4FFA9" stroke-width="0.15" stroke-linecap="round" stroke-linejoin="round" stroke-miterlimit="10" d="
				M647.3,432.851c0,0-1.479-0.474-2.336,0.812"/>
		</g>
		<g opacity="0.3">
			
				<path fill="none" stroke="#C4FFA9" stroke-width="0.15" stroke-linecap="round" stroke-linejoin="round" stroke-miterlimit="10" d="
				M644.835,436.286c0,0-2.82,3.677-3.563,6.643"/>
			
				<path fill="none" stroke="#C4FFA9" stroke-width="0.15" stroke-linecap="round" stroke-linejoin="round" stroke-miterlimit="10" d="
				M640.672,440.956c0.799,0.252,1.339-0.04,1.339-0.04"/>
			
				<path fill="none" stroke="#C4FFA9" stroke-width="0.15" stroke-linecap="round" stroke-linejoin="round" stroke-miterlimit="10" d="
				M643.781,441.633c0,0-1.335-0.586-1.31-1.642"/>
			
				<path fill="none" stroke="#C4FFA9" stroke-width="0.15" stroke-linecap="round" stroke-linejoin="round" stroke-miterlimit="10" d="
				M641.068,438.669c0,0,1.191,0.905,1.846,0.527"/>
			
				<path fill="none" stroke="#C4FFA9" stroke-width="0.15" stroke-linecap="round" stroke-linejoin="round" stroke-miterlimit="10" d="
				M644.985,440.041c0,0-1.445-0.567-1.297-2.104"/>
		</g>
		<path fill="#81DF4D" d="M644.917,438.124c0.796,1.122,2.198,1.34,3.084,0.991c0.526-0.208,1.239-0.796,1.76-1.412
			c0.073-0.091-0.636-1.144-0.709-1.247c-1.118-1.543-3.79-2.938-4.509-0.232C644.366,436.891,644.537,437.585,644.917,438.124z"/>
		<g opacity="0.3">
			
				<path fill="none" stroke="#C4FFA9" stroke-width="0.1" stroke-linecap="round" stroke-linejoin="round" stroke-miterlimit="10" d="
				M644.625,436.221c0,0,2.412,0.378,3.756,1.369"/>
			
				<path fill="none" stroke="#C4FFA9" stroke-width="0.1" stroke-linecap="round" stroke-linejoin="round" stroke-miterlimit="10" d="
				M647.917,436.443c-0.224,0.469-0.541,0.579-0.541,0.579"/>
			
				<path fill="none" stroke="#C4FFA9" stroke-width="0.1" stroke-linecap="round" stroke-linejoin="round" stroke-miterlimit="10" d="
				M646.936,438.132c0,0,0.315-0.858-0.067-1.317"/>
			
				<path fill="none" stroke="#C4FFA9" stroke-width="0.1" stroke-linecap="round" stroke-linejoin="round" stroke-miterlimit="10" d="
				M646.951,435.599c0,0-0.146,0.937-0.539,1.06"/>
			
				<path fill="none" stroke="#C4FFA9" stroke-width="0.1" stroke-linecap="round" stroke-linejoin="round" stroke-miterlimit="10" d="
				M645.899,437.959c0,0,0.367-0.898-0.235-1.517"/>
		</g>
		<path fill="#6CD03F" d="M643.317,436.64c0,0-4.229,0.549-3.604-3.934c0,0,3.859-1.261,4.912,1.547
			C644.625,434.254,645.882,436.553,643.317,436.64z"/>
		<g opacity="0.3">
			
				<path fill="none" stroke="#C4FFA9" stroke-width="0.1" stroke-linecap="round" stroke-linejoin="round" stroke-miterlimit="10" d="
				M644.322,435.881c0,0-2.152-1.708-3.903-2.172"/>
			
				<path fill="none" stroke="#C4FFA9" stroke-width="0.1" stroke-linecap="round" stroke-linejoin="round" stroke-miterlimit="10" d="
				M641.591,433.365c-0.155,0.474,0.014,0.799,0.014,0.799"/>
			
				<path fill="none" stroke="#C4FFA9" stroke-width="0.1" stroke-linecap="round" stroke-linejoin="round" stroke-miterlimit="10" d="
				M641.165,435.214c0,0,0.359-0.792,0.984-0.77"/>
			
				<path fill="none" stroke="#C4FFA9" stroke-width="0.1" stroke-linecap="round" stroke-linejoin="round" stroke-miterlimit="10" d="
				M642.944,433.616c0,0-0.546,0.705-0.328,1.098"/>
			
				<path fill="none" stroke="#C4FFA9" stroke-width="0.1" stroke-linecap="round" stroke-linejoin="round" stroke-miterlimit="10" d="
				M642.099,435.944c0,0,0.348-0.858,1.257-0.76"/>
		</g>
	</g>
	<circle fill="#E5B96A" cx="552.412" cy="393.383" r="3.75"/>
	<circle fill="#6CB6C5" cx="644.252" cy="393.383" r="3.75"/>
	<circle fill="#4B86B7" cx="625.802" cy="393.383" r="3.75"/>
	<circle fill="#6378AD" cx="607.457" cy="393.383" r="3.75"/>
	<circle fill="#7FB780" cx="589.108" cy="393.383" r="3.75"/>
	<circle fill="#E2D56B" cx="570.759" cy="393.383" r="3.75"/>
</g>
</svg>
