<?xml version="1.0" encoding="utf-8"?>
<!-- Generator: Adobe Illustrator 16.0.0, SVG Export Plug-In . SVG Version: 6.00 Build 0)  -->
<!DOCTYPE svg PUBLIC "-//W3C//DTD SVG 1.1//EN" "http://www.w3.org/Graphics/SVG/1.1/DTD/svg11.dtd">
<svg version="1.1" id="레이어_1" xmlns="http://www.w3.org/2000/svg" xmlns:xlink="http://www.w3.org/1999/xlink" x="0px"
	 y="0px" width="595.28px" height="841.89px" viewBox="0 0 595.28 841.89" enable-background="new 0 0 595.28 841.89"
	 xml:space="preserve">
<g>
	<linearGradient id="SVGID_1_" gradientUnits="userSpaceOnUse" x1="151.1108" y1="438.4688" x2="457.3604" y2="438.4688">
		<stop  offset="0" style="stop-color:#666666"/>
		<stop  offset="0.0323" style="stop-color:#28282A"/>
		<stop  offset="0.086" style="stop-color:#666666"/>
		<stop  offset="0.0914" style="stop-color:#494849"/>
		<stop  offset="0.1075" style="stop-color:#3B3D3E"/>
		<stop  offset="0.3871" style="stop-color:#3B3D3E"/>
		<stop  offset="0.405" style="stop-color:#3D3E3F"/>
		<stop  offset="0.4158" style="stop-color:#414243"/>
		<stop  offset="0.4246" style="stop-color:#494A4A"/>
		<stop  offset="0.4325" style="stop-color:#545455"/>
		<stop  offset="0.4396" style="stop-color:#636363"/>
		<stop  offset="0.4409" style="stop-color:#666666"/>
		<stop  offset="0.4785" style="stop-color:#28282A"/>
		<stop  offset="0.5" style="stop-color:#646565"/>
		<stop  offset="0.5108" style="stop-color:#28282A"/>
		<stop  offset="0.5699" style="stop-color:#3B3D3E"/>
		<stop  offset="0.7419" style="stop-color:#3B3D3E"/>
		<stop  offset="0.8172" style="stop-color:#5B5B5B"/>
		<stop  offset="0.8333" style="stop-color:#696A69"/>
		<stop  offset="0.8871" style="stop-color:#696A6A"/>
		<stop  offset="0.9516" style="stop-color:#28282A"/>
		<stop  offset="1" style="stop-color:#666666"/>
	</linearGradient>
	<rect x="151.111" y="134.469" fill="url(#SVGID_1_)" width="306.25" height="608"/>
	<linearGradient id="SVGID_2_" gradientUnits="userSpaceOnUse" x1="351.5117" y1="141.6924" x2="351.5117" y2="165.3594">
		<stop  offset="0" style="stop-color:#666666"/>
		<stop  offset="0.0645" style="stop-color:#28282A"/>
		<stop  offset="0.1559" style="stop-color:#494849"/>
		<stop  offset="0.2097" style="stop-color:#5B5B5B"/>
		<stop  offset="0.2419" style="stop-color:#5B5B5B"/>
		<stop  offset="0.248" style="stop-color:#5B5B5B"/>
		<stop  offset="0.2849" style="stop-color:#5B5B5B"/>
		<stop  offset="0.3871" style="stop-color:#666666"/>
		<stop  offset="0.9247" style="stop-color:#696A69"/>
		<stop  offset="0.9516" style="stop-color:#28282A"/>
		<stop  offset="0.9677" style="stop-color:#666666"/>
		<stop  offset="1" style="stop-color:#676868"/>
		<stop  offset="1" style="stop-color:#696A6A"/>
		<stop  offset="1" style="stop-color:#666666"/>
	</linearGradient>
	<rect x="345.012" y="139.067" fill="url(#SVGID_2_)" width="13" height="23.667"/>
	<linearGradient id="SVGID_3_" gradientUnits="userSpaceOnUse" x1="150.6108" y1="463.5908" x2="458.6104" y2="463.5908">
		<stop  offset="0" style="stop-color:#666666"/>
		<stop  offset="0.0323" style="stop-color:#28282A"/>
		<stop  offset="0.086" style="stop-color:#666666"/>
		<stop  offset="0.0914" style="stop-color:#494849"/>
		<stop  offset="0.1075" style="stop-color:#5B5B5B"/>
		<stop  offset="0.1559" style="stop-color:#515151"/>
		<stop  offset="0.4731" style="stop-color:#3C3E41"/>
		<stop  offset="0.5906" style="stop-color:#3E4043"/>
		<stop  offset="0.6526" style="stop-color:#454648"/>
		<stop  offset="0.7015" style="stop-color:#515152"/>
		<stop  offset="0.7419" style="stop-color:#616161"/>
		<stop  offset="0.8333" style="stop-color:#696A69"/>
		<stop  offset="0.8871" style="stop-color:#696A6A"/>
		<stop  offset="0.9516" style="stop-color:#28282A"/>
		<stop  offset="1" style="stop-color:#666666"/>
	</linearGradient>
	<rect x="150.611" y="459.635" fill="url(#SVGID_3_)" width="308" height="7.912"/>
	<rect x="148.611" y="475.469" fill="#DB90AA" width="153.5" height="264.166"/>
	<rect x="306.679" y="475.469" fill="#E7AB54" width="153.5" height="264.166"/>
	<linearGradient id="SVGID_4_" gradientUnits="userSpaceOnUse" x1="152.3687" y1="691.6084" x2="191.3688" y2="547.6078">
		<stop  offset="0" style="stop-color:#DB90AA"/>
		<stop  offset="1" style="stop-color:#E1A2B9"/>
	</linearGradient>
	<polygon fill="url(#SVGID_4_)" points="153.945,479.635 265.61,479.635 153.945,720.301 	"/>
	<linearGradient id="SVGID_5_" gradientUnits="userSpaceOnUse" x1="148.6108" y1="470.2188" x2="302.1104" y2="470.2188">
		<stop  offset="0" style="stop-color:#666666"/>
		<stop  offset="0.0323" style="stop-color:#28282A"/>
		<stop  offset="0.086" style="stop-color:#666666"/>
		<stop  offset="0.0914" style="stop-color:#494849"/>
		<stop  offset="0.1075" style="stop-color:#5B5B5B"/>
		<stop  offset="0.1559" style="stop-color:#5B5B5B"/>
		<stop  offset="0.2043" style="stop-color:#2F3133"/>
		<stop  offset="0.6989" style="stop-color:#2F3133"/>
		<stop  offset="1" style="stop-color:#28282A"/>
	</linearGradient>
	<rect x="148.611" y="464.969" fill="url(#SVGID_5_)" width="153.5" height="10.5"/>
	<linearGradient id="SVGID_6_" gradientUnits="userSpaceOnUse" x1="460.1787" y1="470.2188" x2="306.6787" y2="470.2188">
		<stop  offset="0" style="stop-color:#666666"/>
		<stop  offset="0.0323" style="stop-color:#28282A"/>
		<stop  offset="0.086" style="stop-color:#666666"/>
		<stop  offset="0.0914" style="stop-color:#494849"/>
		<stop  offset="0.1075" style="stop-color:#5B5B5B"/>
		<stop  offset="0.1559" style="stop-color:#5B5B5B"/>
		<stop  offset="0.2043" style="stop-color:#2F3133"/>
		<stop  offset="0.6989" style="stop-color:#2F3133"/>
		<stop  offset="1" style="stop-color:#28282A"/>
	</linearGradient>
	<rect x="306.679" y="464.969" fill="url(#SVGID_6_)" width="153.5" height="10.5"/>
	<g>
		<rect x="306.679" y="126.969" fill="#B7B6B8" width="153.5" height="334.5"/>
		<rect x="306.689" y="126.992" fill="#B6B5B7" width="153.459" height="334.477"/>
		<rect x="306.699" y="127.015" fill="#B5B3B6" width="153.417" height="334.454"/>
		<rect x="306.709" y="127.038" fill="#B4B2B5" width="153.377" height="334.431"/>
		<rect x="306.719" y="127.062" fill="#B3B1B3" width="153.336" height="334.407"/>
		<rect x="306.729" y="127.085" fill="#B2B0B2" width="153.295" height="334.384"/>
		<rect x="306.739" y="127.107" fill="#B0AFB1" width="153.253" height="334.361"/>
		<rect x="306.75" y="127.131" fill="#AFADAF" width="153.212" height="334.337"/>
		<rect x="306.76" y="127.154" fill="#AEACAE" width="153.171" height="334.314"/>
		<rect x="306.77" y="127.178" fill="#ADABAD" width="153.13" height="334.291"/>
		<rect x="306.78" y="127.201" fill="#ACAAAC" width="153.089" height="334.268"/>
		<rect x="306.79" y="127.224" fill="#ABA8AA" width="153.048" height="334.245"/>
		<rect x="306.801" y="127.247" fill="#AAA7A9" width="153.006" height="334.222"/>
		<rect x="306.811" y="127.27" fill="#A8A6A8" width="152.965" height="334.199"/>
		<rect x="306.82" y="127.293" fill="#A7A5A6" width="152.924" height="334.175"/>
		<rect x="306.83" y="127.317" fill="#A6A3A5" width="152.884" height="334.152"/>
		<rect x="306.841" y="127.34" fill="#A5A2A4" width="152.842" height="334.128"/>
		<rect x="306.851" y="127.363" fill="#A4A1A2" width="152.801" height="334.105"/>
		<rect x="306.861" y="127.387" fill="#A3A0A1" width="152.759" height="334.082"/>
		<rect x="306.871" y="127.41" fill="#A29EA0" width="152.719" height="334.059"/>
		<rect x="306.881" y="127.433" fill="#A19D9F" width="152.678" height="334.036"/>
		<rect x="306.892" y="127.456" fill="#9F9C9D" width="152.636" height="334.013"/>
		<rect x="306.901" y="127.479" fill="#9E9B9C" width="152.595" height="333.989"/>
		<rect x="306.912" y="127.503" fill="#9D9A9B" width="152.554" height="333.966"/>
		<rect x="306.922" y="127.525" fill="#9C989A" width="152.512" height="333.943"/>
		<rect x="306.932" y="127.549" fill="#9B9798" width="152.472" height="333.92"/>
		<rect x="306.941" y="127.572" fill="#9A9697" width="152.431" height="333.896"/>
		<rect x="306.952" y="127.595" fill="#999596" width="152.389" height="333.874"/>
		<rect x="306.963" y="127.619" fill="#989495" width="152.348" height="333.85"/>
		<rect x="306.973" y="127.642" fill="#979293" width="152.307" height="333.827"/>
		<rect x="306.982" y="127.665" fill="#959192" width="152.266" height="333.804"/>
		<rect x="306.992" y="127.688" fill="#949091" width="152.226" height="333.781"/>
		<rect x="307.003" y="127.711" fill="#938F90" width="152.184" height="333.757"/>
		<rect x="307.013" y="127.735" fill="#928E8E" width="152.143" height="333.734"/>
		<rect x="307.023" y="127.758" fill="#918C8D" width="152.101" height="333.711"/>
		<rect x="307.033" y="127.781" fill="#908B8C" width="152.06" height="333.688"/>
		<rect x="307.043" y="127.804" fill="#8F8A8B" width="152.02" height="333.665"/>
		<rect x="307.054" y="127.827" fill="#8E898A" width="151.978" height="333.642"/>
		<rect x="307.063" y="127.851" fill="#8D8888" width="151.937" height="333.618"/>
		<rect x="307.074" y="127.874" fill="#8C8787" width="151.895" height="333.595"/>
		<rect x="307.084" y="127.897" fill="#8A8686" width="151.854" height="333.572"/>
		<rect x="307.094" y="127.92" fill="#898485" width="151.813" height="333.548"/>
		<rect x="307.104" y="127.943" fill="#888384" width="151.772" height="333.525"/>
		<rect x="307.114" y="127.967" fill="#878282" width="151.73" height="333.502"/>
		<rect x="307.125" y="127.99" fill="#868181" width="151.689" height="333.479"/>
		<rect x="307.135" y="128.013" fill="#858080" width="151.648" height="333.456"/>
		<rect x="307.145" y="128.037" fill="#847F7F" width="151.607" height="333.432"/>
		<rect x="307.154" y="128.06" fill="#837E7E" width="151.566" height="333.409"/>
		<rect x="307.165" y="128.083" fill="#827C7D" width="151.525" height="333.386"/>
		<rect x="307.175" y="128.105" fill="#817B7C" width="151.484" height="333.363"/>
		<rect x="307.186" y="128.129" fill="#807A7A" width="151.442" height="333.34"/>
		<rect x="307.195" y="128.152" fill="#7F7979" width="151.401" height="333.316"/>
		<rect x="307.205" y="128.176" fill="#7E7878" width="151.361" height="333.293"/>
		<rect x="307.216" y="128.199" fill="#7D7777" width="151.319" height="333.27"/>
		<rect x="307.226" y="128.222" fill="#7B7676" width="151.278" height="333.247"/>
		<rect x="307.235" y="128.245" fill="#7A7575" width="151.237" height="333.224"/>
		<rect x="307.246" y="128.269" fill="#797474" width="151.195" height="333.2"/>
		<rect x="307.256" y="128.292" fill="#787373" width="151.155" height="333.177"/>
		<rect x="307.266" y="128.315" fill="#777272" width="151.114" height="333.154"/>
		<rect x="307.276" y="128.338" fill="#767171" width="151.072" height="333.13"/>
		<rect x="307.286" y="128.361" fill="#757070" width="151.031" height="333.107"/>
		<rect x="307.297" y="128.385" fill="#746F6E" width="150.99" height="333.084"/>
		<rect x="307.307" y="128.407" fill="#736D6D" width="150.949" height="333.062"/>
		<rect x="307.316" y="128.431" fill="#726C6C" width="150.908" height="333.038"/>
		<rect x="307.327" y="128.454" fill="#716B6B" width="150.866" height="333.015"/>
		<rect x="307.337" y="128.478" fill="#706A6A" width="150.826" height="332.991"/>
		<rect x="307.347" y="128.501" fill="#6F6969" width="150.785" height="332.968"/>
		<rect x="307.357" y="128.523" fill="#6E6868" width="150.743" height="332.945"/>
		<rect x="307.367" y="128.547" fill="#6D6767" width="150.702" height="332.922"/>
		<rect x="307.377" y="128.57" fill="#6C6666" width="150.662" height="332.898"/>
		<rect x="307.388" y="128.593" fill="#6B6565" width="150.62" height="332.875"/>
		<rect x="307.397" y="128.617" fill="#6A6464" width="150.579" height="332.852"/>
		<rect x="307.408" y="128.64" fill="#696363" width="150.537" height="332.829"/>
		<rect x="307.418" y="128.663" fill="#686262" width="150.497" height="332.806"/>
		<rect x="307.428" y="128.687" fill="#676261" width="150.456" height="332.782"/>
		<rect x="307.438" y="128.709" fill="#666160" width="150.414" height="332.76"/>
		<rect x="307.448" y="128.732" fill="#65605F" width="150.373" height="332.736"/>
		<rect x="307.458" y="128.756" fill="#645F5E" width="150.332" height="332.713"/>
		<rect x="307.469" y="128.779" fill="#635E5E" width="150.291" height="332.689"/>
		<rect x="307.479" y="128.802" fill="#625D5D" width="150.25" height="332.667"/>
		<rect x="307.488" y="128.825" fill="#615C5C" width="150.209" height="332.644"/>
		<rect x="307.498" y="128.849" fill="#605B5B" width="150.168" height="332.62"/>
		<rect x="307.509" y="128.872" fill="#5F5A5A" width="150.127" height="332.597"/>
		<rect x="307.52" y="128.895" fill="#5F5959" width="150.085" height="332.574"/>
		<rect x="307.529" y="128.918" fill="#5E5858" width="150.044" height="332.55"/>
		<rect x="307.539" y="128.941" fill="#5D5757" width="150.003" height="332.527"/>
		<rect x="307.549" y="128.965" fill="#5C5656" width="149.963" height="332.504"/>
		<rect x="307.56" y="128.988" fill="#5B5555" width="149.921" height="332.48"/>
		<rect x="307.57" y="129.012" fill="#5A5454" width="149.879" height="332.457"/>
		<rect x="307.58" y="129.034" fill="#595353" width="149.838" height="332.435"/>
		<rect x="307.59" y="129.058" fill="#585352" width="149.797" height="332.411"/>
		<rect x="307.6" y="129.081" fill="#575252" width="149.757" height="332.388"/>
		<rect x="307.609" y="129.104" fill="#565151" width="149.716" height="332.365"/>
		<rect x="307.62" y="129.127" fill="#555050" width="149.674" height="332.342"/>
		<rect x="307.631" y="129.15" fill="#544F4F" width="149.633" height="332.318"/>
		<rect x="307.641" y="129.174" fill="#534E4E" width="149.592" height="332.295"/>
		<rect x="307.65" y="129.197" fill="#524D4D" width="149.551" height="332.272"/>
		<rect x="307.66" y="129.22" fill="#514C4C" width="149.51" height="332.249"/>
		<rect x="307.671" y="129.243" fill="#514B4C" width="149.468" height="332.226"/>
		<rect x="307.682" y="129.267" fill="#504B4B" width="149.427" height="332.202"/>
		<rect x="307.691" y="129.29" fill="#4F4A4A" width="149.386" height="332.179"/>
		<rect x="307.701" y="129.313" fill="#4E4949" width="149.345" height="332.156"/>
		<rect x="307.711" y="129.336" fill="#4D4848" width="149.305" height="332.133"/>
		<rect x="307.722" y="129.359" fill="#4C4747" width="149.263" height="332.109"/>
		<rect x="307.731" y="129.382" fill="#4B4647" width="149.222" height="332.086"/>
		<rect x="307.742" y="129.405" fill="#4A4646" width="149.18" height="332.063"/>
		<rect x="307.752" y="129.429" fill="#494545" width="149.139" height="332.04"/>
		<rect x="307.762" y="129.452" fill="#484444" width="149.099" height="332.017"/>
		<rect x="307.771" y="129.476" fill="#474343" width="149.058" height="331.993"/>
		<rect x="307.782" y="129.499" fill="#474243" width="149.016" height="331.97"/>
		<rect x="307.792" y="129.521" fill="#464142" width="148.975" height="331.947"/>
		<rect x="307.803" y="129.545" fill="#454141" width="148.934" height="331.924"/>
		<rect x="307.813" y="129.568" fill="#444040" width="148.893" height="331.9"/>
		<rect x="307.822" y="129.592" fill="#433F3F" width="148.852" height="331.877"/>
		<rect x="307.833" y="129.614" fill="#423E3F" width="148.81" height="331.854"/>
		<rect x="307.843" y="129.638" fill="#413D3E" width="148.769" height="331.831"/>
		<rect x="307.854" y="129.661" fill="#403D3D" width="148.728" height="331.808"/>
		<rect x="307.863" y="129.684" fill="#3F3C3C" width="148.687" height="331.785"/>
		<rect x="307.873" y="129.707" fill="#3F3B3C" width="148.646" height="331.762"/>
		<rect x="307.883" y="129.73" fill="#3E3A3B" width="148.605" height="331.738"/>
		<rect x="307.894" y="129.754" fill="#3D393A" width="148.563" height="331.715"/>
		<rect x="307.903" y="129.777" fill="#3C3939" width="148.522" height="331.691"/>
		<rect x="307.914" y="129.8" fill="#3B3839" width="148.481" height="331.668"/>
		<rect x="307.924" y="129.824" fill="#3A3738" width="148.439" height="331.645"/>
		<rect x="307.934" y="129.847" fill="#393637" width="148.399" height="331.622"/>
		<rect x="307.944" y="129.87" fill="#393536" width="148.357" height="331.599"/>
		<rect x="307.954" y="129.894" fill="#383536" width="148.316" height="331.575"/>
		<rect x="307.965" y="129.916" fill="#373435" width="148.275" height="331.553"/>
		<rect x="307.975" y="129.939" fill="#363334" width="148.234" height="331.529"/>
		<rect x="307.984" y="129.962" fill="#353233" width="148.193" height="331.506"/>
		<rect x="307.995" y="129.986" fill="#343233" width="148.151" height="331.483"/>
		<rect x="308.005" y="130.009" fill="#333132" width="148.11" height="331.46"/>
		<rect x="308.015" y="130.032" fill="#323031" width="148.069" height="331.437"/>
		<rect x="308.025" y="130.056" fill="#312F30" width="148.028" height="331.413"/>
		<rect x="308.035" y="130.079" fill="#312F30" width="147.987" height="331.39"/>
		<rect x="308.045" y="130.102" fill="#302E2F" width="147.946" height="331.367"/>
		<rect x="308.056" y="130.125" fill="#2F2D2E" width="147.905" height="331.344"/>
		<rect x="308.065" y="130.148" fill="#2E2C2E" width="147.864" height="331.32"/>
		<rect x="308.076" y="130.172" fill="#2D2C2D" width="147.822" height="331.297"/>
		<rect x="308.086" y="130.195" fill="#2C2B2C" width="147.782" height="331.274"/>
		<rect x="308.096" y="130.218" fill="#2B2A2B" width="147.741" height="331.251"/>
		<rect x="308.106" y="130.241" fill="#2B2A2B" width="147.699" height="331.228"/>
		<rect x="308.116" y="130.264" fill="#2A292A" width="147.658" height="331.205"/>
		<rect x="308.127" y="130.288" fill="#292829" width="147.616" height="331.181"/>
		<rect x="308.137" y="130.311" fill="#282729" width="147.576" height="331.158"/>
		<rect x="308.146" y="130.334" fill="#272728" width="147.535" height="331.135"/>
		<rect x="308.156" y="130.357" fill="#262627" width="147.494" height="331.111"/>
		<rect x="308.167" y="130.38" fill="#252527" width="147.452" height="331.088"/>
		<rect x="308.177" y="130.404" fill="#252526" width="147.412" height="331.065"/>
		<rect x="308.188" y="130.427" fill="#242425" width="147.37" height="331.042"/>
		<rect x="308.197" y="130.45" fill="#232325" width="147.329" height="331.019"/>
		<rect x="308.207" y="130.474" fill="#222224" width="147.288" height="330.995"/>
		<rect x="308.218" y="130.496" fill="#222223" width="147.246" height="330.973"/>
		<rect x="308.228" y="130.52" fill="#212123" width="147.206" height="330.949"/>
		<rect x="308.238" y="130.543" fill="#202022" width="147.164" height="330.926"/>
		<rect x="308.248" y="130.566" fill="#1F1F21" width="147.123" height="330.903"/>
		<rect x="308.258" y="130.589" fill="#1E1F21" width="147.082" height="330.879"/>
		<rect x="308.268" y="130.612" fill="#1E1E20" width="147.042" height="330.856"/>
		<rect x="308.278" y="130.636" fill="#1D1D1F" width="147" height="330.833"/>
	</g>
	<rect x="306.68" y="126.969" fill="#262628" width="153.5" height="3.667"/>
	<polygon fill="#303133" points="308.277,375.303 402.278,130.636 402.278,126.969 308.277,126.969 	"/>
	<rect x="337.944" y="198.303" fill="#0F0C0B" width="91" height="163.667"/>
	<linearGradient id="SVGID_7_" gradientUnits="userSpaceOnUse" x1="424.1982" y1="293.9067" x2="308.1982" y2="236.9067">
		<stop  offset="0.0056" style="stop-color:#EBECED"/>
		<stop  offset="0.2528" style="stop-color:#FFFEEA"/>
		<stop  offset="0.4008" style="stop-color:#F5F2E1"/>
		<stop  offset="0.5955" style="stop-color:#E0DACF"/>
		<stop  offset="0.7865" style="stop-color:#F4F4F4"/>
		<stop  offset="1" style="stop-color:#E1DEC6"/>
	</linearGradient>
	<rect x="341.11" y="217.719" fill="url(#SVGID_7_)" width="83.5" height="111.75"/>
	<circle fill="#EDBF6A" cx="347.86" cy="335.469" r="3.75"/>
	<circle fill="#EBDD6B" cx="362.013" cy="335.469" r="3.75"/>
	<circle fill="#82BF83" cx="376.165" cy="335.469" r="3.75"/>
	<circle fill="#677EB8" cx="390.319" cy="335.469" r="3.75"/>
	<circle fill="#4D8EC4" cx="404.472" cy="335.469" r="3.75"/>
	<circle fill="#6FBFCF" cx="418.624" cy="335.469" r="3.75"/>
	<path fill="#1D1D1F" d="M161.611,742.469c0,0.895,0.004,1.789,0.003,2.684c-0.001,1.842,0.579,3,2.395,3.592
		c2.181,0.709,4.528,0.693,6.774,0.35c0.896-0.137,4.104-0.324,4.084-1.629c0.838,0.043,1.805-0.268,2.619-0.121
		c3.117,0.559,6.277,0.656,9.438,0.637c2.092-0.014,5.547,0.545,6.041-2.256c0.042-0.238,0.408-3.256,0.396-3.256H161.611z"/>
	<path fill="#1A191B" d="M450.61,742.469c0,0.895-0.002,1.789-0.002,2.684c0,1.842-0.578,3-2.395,3.592
		c-2.182,0.709-4.527,0.693-6.773,0.35c-0.896-0.137-4.105-0.324-4.086-1.629c-0.838,0.043-1.803-0.268-2.619-0.121
		c-3.117,0.559-6.277,0.656-9.436,0.637c-2.094-0.014-5.549,0.545-6.043-2.256c-0.041-0.238-0.406-3.256-0.396-3.256H450.61z"/>
	<path fill="#18171B" d="M288.86,742.469v4.5c0,0,0.375,1.375,4.5,1.375c1.229,0,2.266-0.098,3.422-0.557
		c0.455-0.182,0.426-0.32,1.105-0.447c2.529-0.467,5.59,0.004,8.166,0.004c2.855,0,5.711,0,8.568,0c0.09,0,1.738,0,1.738,0v-4.875
		H288.86z"/>
	<rect x="148.611" y="126.969" fill="#7CBA9F" width="153.5" height="334.5"/>
	<polygon fill="#99C9B4" points="153.111,132.219 205.861,132.219 153.111,378.302 	"/>
	<linearGradient id="SVGID_8_" gradientUnits="userSpaceOnUse" x1="279.7217" y1="457.9932" x2="241.7215" y2="339.9924">
		<stop  offset="0" style="stop-color:#7CBA9F"/>
		<stop  offset="1" style="stop-color:#92C5B0"/>
	</linearGradient>
	<polygon fill="url(#SVGID_8_)" points="225.36,132.219 297.11,132.219 297.11,390.969 271.61,453.914 156.111,453.914 	"/>
</g>
</svg>
